<svg xmlns="http://www.w3.org/2000/svg" viewBox="0 0 240 50" fill="none" stroke="currentColor" stroke-width="2" stroke-linecap="square" stroke-linejoin="miter"><path d="M18.873 9.080 L 8.746 9.214 8.873 10.107 L 9.000 11.000 18.900 11.107 L 28.800 11.214 28.800 23.607 L 28.800 36.000 30.000 36.000 L 31.200 36.000 31.200 23.607 L 31.200 11.214 41.100 11.107 L 51.000 11.000 51.128 10.100 L 51.256 9.200 41.884 9.200 C 36.729 9.200,31.722 9.143,30.756 9.074 C 29.790 9.004,24.443 9.007,18.873 9.080 M94.000 22.348 L 94.000 36.000 105.000 36.000 L 116.000 36.000 116.000 35.000 L 116.000 34.000 106.000 34.000 L 96.000 34.000 96.000 28.809 L 96.000 23.618 103.500 23.509 C 110.936 23.401,111.001 23.392,111.128 22.500 L 111.256 21.600 103.628 21.600 L 96.000 21.600 96.000 16.400 L 96.000 11.200 106.000 11.200 L 116.000 11.200 116.000 10.200 L 116.000 9.200 106.500 9.196 C 101.275 9.193,96.325 9.080,95.500 8.943 L 94.000 8.695 94.000 22.348 M124.180 9.180 C 123.951 9.409,123.844 14.805,123.911 22.780 L 124.021 36.000 125.004 36.000 L 125.988 36.000 126.094 24.562 L 126.200 13.124 130.533 18.562 C 132.917 21.553,134.927 24.000,135.000 24.000 C 135.073 24.000,137.083 21.553,139.467 18.562 L 143.800 13.124 143.906 24.562 L 144.012 36.000 144.996 36.000 L 145.979 36.000 146.089 22.766 C 146.200 9.535,146.099 8.407,144.848 8.862 C 144.640 8.938,142.460 11.520,140.003 14.600 C 137.547 17.680,135.405 20.338,135.242 20.507 C 135.079 20.676,132.798 18.112,130.173 14.810 C 127.548 11.507,125.211 8.804,124.980 8.803 C 124.749 8.801,124.389 8.971,124.180 9.180 M154.000 22.348 L 154.000 36.000 165.000 36.000 L 176.000 36.000 176.000 35.000 L 176.000 34.000 166.000 34.000 L 156.000 34.000 156.000 28.809 L 156.000 23.618 163.500 23.509 C 170.936 23.401,171.001 23.392,171.128 22.500 L 171.256 21.600 163.628 21.600 L 156.000 21.600 156.000 16.400 L 156.000 11.200 166.000 11.200 L 176.000 11.200 176.000 10.200 L 176.000 9.200 166.500 9.196 C 161.275 9.193,156.325 9.080,155.500 8.943 L 154.000 8.695 154.000 22.348 M184.267 9.067 C 184.120 9.213,184.000 15.333,184.000 22.667 L 184.000 36.000 185.000 36.000 L 186.000 36.000 186.021 25.700 L 186.043 15.400 190.210 25.800 C 192.501 31.520,194.517 36.164,194.688 36.121 C 196.268 35.718,196.205 36.333,196.089 22.464 L 195.979 9.200 194.996 9.200 L 194.014 9.200 193.907 19.264 L 193.800 29.327 189.900 19.560 C 187.755 14.188,186.000 9.570,186.000 9.297 C 186.000 8.776,184.726 8.607,184.267 9.067 M204.000 16.148 L 204.000 23.600 214.000 23.600 L 224.000 23.600 224.000 28.800 L 224.000 34.000 214.000 34.000 L 204.000 34.000 204.000 35.000 L 204.000 36.000 215.000 36.000 L 226.000 36.000 226.000 28.800 L 226.000 21.600 216.000 21.600 L 206.000 21.600 206.000 16.400 L 206.000 11.200 216.000 11.200 L 226.000 11.200 226.000 10.200 L 226.000 9.200 216.500 9.196 C 211.275 9.193,206.325 9.080,205.500 8.943 L 204.000 8.695 204.000 16.148 M54.000 22.600 L 54.000 36.000 55.000 36.000 L 56.000 36.000 56.000 29.800 L 56.000 23.600 65.000 23.600 L 74.000 23.600 74.000 29.800 L 74.000 36.000 75.000 36.000 L 76.000 36.000 76.000 22.600 L 76.000 9.200 75.000 9.200 L 74.000 9.200 74.000 15.400 L 74.000 21.600 65.000 21.600 L 56.000 21.600 56.000 15.400 L 56.000 9.200 55.000 9.200 L 54.000 9.200 54.000 22.600 M84.000 22.600 L 84.000 36.000 85.000 36.000 L 86.000 36.000 86.000 22.600 L 86.000 9.200 85.000 9.200 L 84.000 9.200 84.000 22.600 " stroke="none" fill="black" fill-rule="evenodd"></path></svg>