<svg xmlns="http://www.w3.org/2000/svg" viewBox="0 0 24 24" fill="none" stroke="currentColor" stroke-width="2" stroke-linecap="square" stroke-linejoin="miter"><path d="M6.143 10.482 C 2.941 16.247,0.320 20.972,0.320 20.982 C 0.320 20.992,5.576 21.000,12.000 21.000 C 18.424 21.000,23.680 20.992,23.680 20.982 C 23.680 20.931,12.028 0.000,12.000 0.000 C 11.982 0.000,9.346 4.717,6.143 10.482 M16.140 11.504 C 18.406 15.586,20.266 18.943,20.273 18.963 C 20.281 18.986,18.730 18.999,16.293 18.997 C 12.781 18.995,12.325 18.988,12.509 18.938 C 12.854 18.846,13.124 18.684,13.404 18.404 C 13.920 17.889,14.106 17.236,13.940 16.529 C 13.858 16.182,13.720 15.927,13.465 15.653 C 13.198 15.366,12.870 15.164,12.523 15.073 L 12.260 15.005 12.630 15.002 L 13.000 15.000 13.000 11.000 L 13.000 7.000 12.000 7.000 L 11.000 7.000 11.000 11.000 L 11.000 15.000 11.370 15.002 L 11.740 15.005 11.477 15.073 C 11.130 15.164,10.802 15.366,10.535 15.653 C 10.178 16.038,10.000 16.485,10.000 17.000 C 10.000 17.546,10.193 18.001,10.596 18.404 C 10.876 18.684,11.146 18.846,11.491 18.938 C 11.675 18.988,11.219 18.995,7.707 18.997 C 5.270 18.999,3.719 18.986,3.727 18.963 C 3.759 18.872,11.982 4.083,12.000 4.083 C 12.011 4.083,13.874 7.423,16.140 11.504 " stroke="none" fill="black" fill-rule="evenodd"></path></svg>