<svg xmlns="http://www.w3.org/2000/svg" viewBox="0 0 24 24" fill="none" stroke="currentColor" stroke-width="2" stroke-linecap="square" stroke-linejoin="miter"><path d="M11.400 3.044 C 9.761 3.229,8.261 4.290,7.526 5.785 C 7.158 6.533,7.020 7.136,7.020 8.000 C 7.020 9.062,7.279 9.920,7.868 10.815 C 8.124 11.203,8.825 11.894,9.231 12.159 L 9.562 12.375 9.251 12.488 C 8.141 12.891,7.059 13.605,6.199 14.504 C 4.995 15.763,4.235 17.405,4.042 19.168 C 4.019 19.382,4.000 19.882,4.000 20.278 L 4.000 21.000 5.000 21.000 L 6.000 21.000 6.001 20.410 C 6.003 19.406,6.095 18.746,6.329 18.060 C 6.919 16.328,8.329 14.919,10.060 14.329 C 11.290 13.909,12.710 13.909,13.940 14.329 C 15.671 14.919,17.081 16.328,17.671 18.060 C 17.905 18.746,17.997 19.406,17.999 20.410 L 18.000 21.000 19.000 21.000 L 20.000 21.000 20.000 20.278 C 20.000 19.144,19.893 18.413,19.595 17.500 C 19.229 16.382,18.612 15.352,17.801 14.504 C 16.940 13.604,15.859 12.891,14.745 12.486 L 14.431 12.372 14.585 12.278 C 15.352 11.813,16.024 11.089,16.433 10.288 C 16.838 9.494,16.980 8.899,16.980 8.000 C 16.980 7.101,16.838 6.506,16.433 5.713 C 15.794 4.461,14.604 3.510,13.240 3.162 C 12.669 3.016,12.019 2.974,11.400 3.044 M12.861 5.129 C 13.804 5.405,14.584 6.183,14.875 7.139 C 14.958 7.412,14.973 7.542,14.973 8.000 C 14.973 8.458,14.958 8.588,14.875 8.861 C 14.582 9.822,13.819 10.581,12.840 10.886 C 12.406 11.021,11.594 11.021,11.160 10.886 C 10.181 10.581,9.418 9.822,9.125 8.861 C 9.042 8.588,9.027 8.458,9.027 8.000 C 9.027 7.542,9.042 7.412,9.125 7.139 C 9.456 6.054,10.371 5.245,11.499 5.040 C 11.832 4.980,12.500 5.023,12.861 5.129 " stroke="none" fill-rule="evenodd" fill="black"></path></svg>